# xmcd
#
# Track frame offsets: 
#        150
#        17577
#        35016
#        55041
#        74229
#        88571
#        104835
#        120032
#        138085
#        158663
#
# Disc length: 2343 seconds
#
# Revision: 1
# Processed by: cddbd v1.5.2PL0 Copyright (c) Steve Scherf et al.
# Submitted via: ExactAudioCopy v1.3
#
DISCID=7e09250a
DTITLE=Danielia Cotton - Rare Child
DYEAR=2008
DGENRE=Blues-Rock
TTITLE0=Make U Move
TTITLE1=Testify
TTITLE2=Didn't U
TTITLE3=Bang My Drum
TTITLE4=Rare Child
TTITLE5=Running
TTITLE6=Righteous People
TTITLE7=Dark Desire
TTITLE8=Let It Ride
TTITLE9=Bound
EXTD=
EXTT0=
EXTT1=
EXTT2=
EXTT3=
EXTT4=
EXTT5=
EXTT6=
EXTT7=
EXTT8=
EXTT9=
PLAYORDER=
